<?xml version="1.0" encoding="us-ascii" standalone="no"?><svg xmlns="http://www.w3.org/2000/svg" xmlns:xlink="http://www.w3.org/1999/xlink" contentStyleType="text/css" height="509px" preserveAspectRatio="none" style="width:1045px;height:509px;background:#FFFFFF;" version="1.1" viewBox="0 0 1045 509" width="1045px" zoomAndPan="magnify"><defs/><g><text fill="#000000" font-family="sans-serif" font-size="14" font-weight="bold" lengthAdjust="spacing" textLength="308" x="370.5" y="29.5332">UC3 - Importer programme depuis un fichier</text><rect fill="#FFFFFF" height="255.8125" style="stroke:#181818;stroke-width:1.0;" width="10" x="349.5" y="153.5703"/><rect fill="#FFFFFF" height="91.0547" style="stroke:#181818;stroke-width:1.0;" width="10" x="506.5" y="183.9219"/><rect fill="#FFFFFF" height="30.3516" style="stroke:#181818;stroke-width:1.0;" width="10" x="671.5" y="214.2734"/><rect fill="#FFFFFF" height="73.7031" style="stroke:#181818;stroke-width:1.0;" width="10" x="772" y="305.3281"/><line style="stroke:#181818;stroke-width:0.5;stroke-dasharray:5.0,5.0;" x1="22" x2="22" y1="121.2188" y2="427.3828"/><line style="stroke:#181818;stroke-width:0.5;stroke-dasharray:5.0,5.0;" x1="354" x2="354" y1="121.2188" y2="427.3828"/><line style="stroke:#181818;stroke-width:0.5;stroke-dasharray:5.0,5.0;" x1="511.5" x2="511.5" y1="121.2188" y2="427.3828"/><line style="stroke:#181818;stroke-width:0.5;stroke-dasharray:5.0,5.0;" x1="676.5" x2="676.5" y1="121.2188" y2="427.3828"/><line style="stroke:#181818;stroke-width:0.5;stroke-dasharray:5.0,5.0;" x1="776.5" x2="776.5" y1="121.2188" y2="427.3828"/><text fill="#000000" font-family="sans-serif" font-size="14" lengthAdjust="spacing" textLength="29" x="5" y="118.1426">User</text><ellipse cx="22.5" cy="52.1094" fill="#E2E2F0" rx="8" ry="8" style="stroke:#181818;stroke-width:0.5;"/><path d="M22.5,60.1094 L22.5,87.1094 M9.5,68.1094 L35.5,68.1094 M22.5,87.1094 L9.5,102.1094 M22.5,87.1094 L35.5,102.1094 " fill="none" style="stroke:#181818;stroke-width:0.5;"/><text fill="#000000" font-family="sans-serif" font-size="14" lengthAdjust="spacing" textLength="29" x="5" y="440.916">User</text><ellipse cx="22.5" cy="452.4922" fill="#E2E2F0" rx="8" ry="8" style="stroke:#181818;stroke-width:0.5;"/><path d="M22.5,460.4922 L22.5,487.4922 M9.5,468.4922 L35.5,468.4922 M22.5,487.4922 L9.5,502.4922 M22.5,487.4922 L35.5,502.4922 " fill="none" style="stroke:#181818;stroke-width:0.5;"/><rect fill="#E2E2F0" height="31.6094" rx="2.5" ry="2.5" style="stroke:#181818;stroke-width:0.5;" width="129" x="290" y="88.6094"/><text fill="#000000" font-family="sans-serif" font-size="14" lengthAdjust="spacing" textLength="115" x="297" y="110.1426">RequestController</text><rect fill="#E2E2F0" height="31.6094" rx="2.5" ry="2.5" style="stroke:#181818;stroke-width:0.5;" width="129" x="290" y="426.3828"/><text fill="#000000" font-family="sans-serif" font-size="14" lengthAdjust="spacing" textLength="115" x="297" y="447.916">RequestController</text><rect fill="#E2E2F0" height="31.6094" rx="2.5" ry="2.5" style="stroke:#181818;stroke-width:0.5;" width="114" x="454.5" y="88.6094"/><text fill="#000000" font-family="sans-serif" font-size="14" lengthAdjust="spacing" textLength="100" x="461.5" y="110.1426">RequestService</text><rect fill="#E2E2F0" height="31.6094" rx="2.5" ry="2.5" style="stroke:#181818;stroke-width:0.5;" width="114" x="454.5" y="426.3828"/><text fill="#000000" font-family="sans-serif" font-size="14" lengthAdjust="spacing" textLength="100" x="461.5" y="447.916">RequestService</text><rect fill="#E2E2F0" height="31.6094" rx="2.5" ry="2.5" style="stroke:#181818;stroke-width:0.5;" width="90" x="631.5" y="88.6094"/><text fill="#000000" font-family="sans-serif" font-size="14" lengthAdjust="spacing" textLength="76" x="638.5" y="110.1426">XMLParsers</text><rect fill="#E2E2F0" height="31.6094" rx="2.5" ry="2.5" style="stroke:#181818;stroke-width:0.5;" width="90" x="631.5" y="426.3828"/><text fill="#000000" font-family="sans-serif" font-size="14" lengthAdjust="spacing" textLength="76" x="638.5" y="447.916">XMLParsers</text><rect fill="#E2E2F0" height="31.6094" rx="2.5" ry="2.5" style="stroke:#181818;stroke-width:0.5;" width="91" x="731.5" y="88.6094"/><text fill="#000000" font-family="sans-serif" font-size="14" lengthAdjust="spacing" textLength="77" x="738.5" y="110.1426">TourService</text><rect fill="#E2E2F0" height="31.6094" rx="2.5" ry="2.5" style="stroke:#181818;stroke-width:0.5;" width="91" x="731.5" y="426.3828"/><text fill="#000000" font-family="sans-serif" font-size="14" lengthAdjust="spacing" textLength="77" x="738.5" y="447.916">TourService</text><rect fill="#FFFFFF" height="255.8125" style="stroke:#181818;stroke-width:1.0;" width="10" x="349.5" y="153.5703"/><rect fill="#FFFFFF" height="91.0547" style="stroke:#181818;stroke-width:1.0;" width="10" x="506.5" y="183.9219"/><rect fill="#FFFFFF" height="30.3516" style="stroke:#181818;stroke-width:1.0;" width="10" x="671.5" y="214.2734"/><rect fill="#FFFFFF" height="73.7031" style="stroke:#181818;stroke-width:1.0;" width="10" x="772" y="305.3281"/><polygon fill="#181818" points="337.5,149.5703,347.5,153.5703,337.5,157.5703,341.5,153.5703" style="stroke:#181818;stroke-width:1.0;"/><line style="stroke:#181818;stroke-width:1.0;" x1="22.5" x2="343.5" y1="153.5703" y2="153.5703"/><text fill="#000000" font-family="sans-serif" font-size="13" lengthAdjust="spacing" textLength="308" x="29.5" y="148.7139">loadRequests(filepath), optional: List&lt;NewCourrierID&gt;</text><polygon fill="#181818" points="494.5,179.9219,504.5,183.9219,494.5,187.9219,498.5,183.9219" style="stroke:#181818;stroke-width:1.0;"/><line style="stroke:#181818;stroke-width:1.0;" x1="359.5" x2="500.5" y1="183.9219" y2="183.9219"/><text fill="#000000" font-family="sans-serif" font-size="13" lengthAdjust="spacing" textLength="128" x="366.5" y="179.0654">loadRequests(filepath)</text><polygon fill="#181818" points="659.5,210.2734,669.5,214.2734,659.5,218.2734,663.5,214.2734" style="stroke:#181818;stroke-width:1.0;"/><line style="stroke:#181818;stroke-width:1.0;" x1="516.5" x2="665.5" y1="214.2734" y2="214.2734"/><text fill="#000000" font-family="sans-serif" font-size="13" lengthAdjust="spacing" textLength="136" x="523.5" y="209.417">parseRequests(filepath)</text><polygon fill="#181818" points="527.5,240.625,517.5,244.625,527.5,248.625,523.5,244.625" style="stroke:#181818;stroke-width:1.0;"/><line style="stroke:#181818;stroke-width:1.0;stroke-dasharray:2.0,2.0;" x1="521.5" x2="675.5" y1="244.625" y2="244.625"/><text fill="#000000" font-family="sans-serif" font-size="13" lengthAdjust="spacing" textLength="85" x="533.5" y="239.7686">PickupDelivery</text><polygon fill="#181818" points="370.5,270.9766,360.5,274.9766,370.5,278.9766,366.5,274.9766" style="stroke:#181818;stroke-width:1.0;"/><line style="stroke:#181818;stroke-width:1.0;stroke-dasharray:2.0,2.0;" x1="364.5" x2="510.5" y1="274.9766" y2="274.9766"/><text fill="#000000" font-family="sans-serif" font-size="13" lengthAdjust="spacing" textLength="92" x="376.5" y="270.1201">requestsLoaded</text><polygon fill="#181818" points="760,301.3281,770,305.3281,760,309.3281,764,305.3281" style="stroke:#181818;stroke-width:1.0;"/><line style="stroke:#181818;stroke-width:1.0;" x1="359.5" x2="766" y1="305.3281" y2="305.3281"/><text fill="#000000" font-family="sans-serif" font-size="13" lengthAdjust="spacing" textLength="249" x="366.5" y="300.4717">assignRequestsToCouriers(list&lt;CourierID&gt;)</text><line style="stroke:#181818;stroke-width:1.0;" x1="782" x2="824" y1="335.6797" y2="335.6797"/><line style="stroke:#181818;stroke-width:1.0;" x1="824" x2="824" y1="335.6797" y2="348.6797"/><line style="stroke:#181818;stroke-width:1.0;" x1="783" x2="824" y1="348.6797" y2="348.6797"/><polygon fill="#181818" points="793,344.6797,783,348.6797,793,352.6797,789,348.6797" style="stroke:#181818;stroke-width:1.0;"/><text fill="#000000" font-family="sans-serif" font-size="13" lengthAdjust="spacing" textLength="249" x="789" y="330.8232">assignRequestsToCouriers(list&lt;CourierID&gt;)</text><polygon fill="#181818" points="370.5,375.0313,360.5,379.0313,370.5,383.0313,366.5,379.0313" style="stroke:#181818;stroke-width:1.0;"/><line style="stroke:#181818;stroke-width:1.0;stroke-dasharray:2.0,2.0;" x1="364.5" x2="776" y1="379.0313" y2="379.0313"/><text fill="#000000" font-family="sans-serif" font-size="13" lengthAdjust="spacing" textLength="77" x="376.5" y="374.1748">toursUpdated</text><polygon fill="#181818" points="33.5,405.3828,23.5,409.3828,33.5,413.3828,29.5,409.3828" style="stroke:#181818;stroke-width:1.0;"/><line style="stroke:#181818;stroke-width:1.0;stroke-dasharray:2.0,2.0;" x1="27.5" x2="353.5" y1="409.3828" y2="409.3828"/><text fill="#000000" font-family="sans-serif" font-size="13" lengthAdjust="spacing" textLength="259" x="39.5" y="404.5264">"Programme charg&#233; et tourn&#233;es recalcul&#233;es"</text><!--SRC=[dPAnJiCm48RtFCKfKv7en5QXBkc2L53Kf59Noxcs9zpOd2z5F5AVeo_6EQGeaO21BOu___VzJeJ48MoB1vZ3qobu5cG8x0ziJYU41aD74ReMzcIFX9nbnefds4Pz3eQ5B0NJ2kGRVEimIk5ROUySSWucmgRuaQgGpsJn2wccoEvvNHhM_DXlxyhfTkqx7X-lgonBDZ1VwZHOWFEc6SR4sPuS1YF7ktlmGSYtnYrWJL4UN_2zq2ZMKa-hPQf5PoEOZ3FDIMdLhsaZNCShgFYkL3mayxzuhQFW_1PVadtjmWeTdP4_iWR7O1zygyL3w5g5i1cJlK9lNAT84oCTsfj3xLDBBHbdBjKULbfv9ALtM5V_2AX7VgBlupOqcZUngmSxvVhFj82y_Fw_xD7muNe1bFvyUxrWrARMEDkvjCWdHOjF]--></g></svg>