<?xml version="1.0" encoding="us-ascii" standalone="no"?><svg xmlns="http://www.w3.org/2000/svg" xmlns:xlink="http://www.w3.org/1999/xlink" contentStyleType="text/css" height="1183px" preserveAspectRatio="none" style="width:720px;height:1183px;background:#FFFFFF;" version="1.1" viewBox="0 0 720 1183" width="720px" zoomAndPan="magnify"><defs/><g><!--cluster Application optimisation tourn?e--><g id="cluster_Application optimisation tourn&#233;e"><rect fill="none" height="1170" rx="2.5" ry="2.5" style="stroke:#181818;stroke-width:1.0;" width="354" x="171" y="7"/><text fill="#000000" font-family="sans-serif" font-size="14" font-weight="bold" lengthAdjust="spacing" textLength="228" x="234" y="23.5332">Application optimisation tourn&#233;e</text></g><g id="elem_UC1"><ellipse cx="347.9775" cy="567.7955" fill="#F1F1F1" rx="79.4775" ry="18.2955" style="stroke:#181818;stroke-width:0.5;"/><text fill="#000000" font-family="sans-serif" font-size="14" lengthAdjust="spacing" textLength="113" x="290.256" y="571.8709">Sauvegarder plan</text></g><g id="elem_UC6"><ellipse cx="347.9418" cy="206.9884" fill="#F1F1F1" rx="105.4418" ry="23.4884" style="stroke:#181818;stroke-width:0.5;"/><text fill="#000000" font-family="sans-serif" font-size="14" lengthAdjust="spacing" textLength="173" x="261.4418" y="210.7169">Calculer le meilleur tourn&#233;e</text></g><g id="elem_UC3"><ellipse cx="348.1756" cy="642.1351" fill="#F1F1F1" rx="88.6756" ry="20.1351" style="stroke:#181818;stroke-width:0.5;"/><text fill="#000000" font-family="sans-serif" font-size="14" lengthAdjust="spacing" textLength="135" x="280.6756" y="645.8636">Sauvegarder tourn&#233;e</text></g><g id="elem_UC4"><ellipse cx="347.855" cy="715.171" fill="#F1F1F1" rx="76.355" ry="17.671" style="stroke:#181818;stroke-width:0.5;"/><text fill="#000000" font-family="sans-serif" font-size="14" lengthAdjust="spacing" textLength="105" x="292.6233" y="719.6255">Importer tourn&#233;e</text></g><g id="elem_UC5"><ellipse cx="347.7666" cy="802.0533" fill="#F1F1F1" rx="160.7666" ry="34.5533" style="stroke:#181818;stroke-width:0.5;"/><text fill="#000000" font-family="sans-serif" font-size="14" lengthAdjust="spacing" textLength="291" x="202.2666" y="805.7818">Modifier le nombre de livreurs pour la livraison</text></g><g id="elem_UC2"><ellipse cx="348.1279" cy="487.8256" fill="#F1F1F1" rx="119.6279" ry="26.3256" style="stroke:#181818;stroke-width:0.5;"/><text fill="#000000" font-family="sans-serif" font-size="14" lengthAdjust="spacing" textLength="204" x="246.1279" y="491.5541">G&#233;rer une demande de livraison</text></g><g id="elem_UC7"><ellipse cx="347.9763" cy="61.0953" fill="#F1F1F1" rx="75.9763" ry="17.5953" style="stroke:#181818;stroke-width:0.5;"/><text fill="#000000" font-family="sans-serif" font-size="14" lengthAdjust="spacing" textLength="104" x="293.0467" y="65.5957">choisir un livreur</text></g><g id="elem_UC8"><ellipse cx="348.2363" cy="131.2473" fill="#F1F1F1" rx="76.7363" ry="17.7473" style="stroke:#181818;stroke-width:0.5;"/><text fill="#000000" font-family="sans-serif" font-size="14" lengthAdjust="spacing" textLength="106" x="292.7006" y="135.6555">choisir un pickup</text></g><g id="elem_UC9"><ellipse cx="347.8789" cy="389.8758" fill="#F1F1F1" rx="79.8789" ry="18.3758" style="stroke:#181818;stroke-width:0.5;"/><text fill="#000000" font-family="sans-serif" font-size="14" lengthAdjust="spacing" textLength="114" x="289.8373" y="393.9024">choisir un delivery</text></g><g id="elem_UC10"><ellipse cx="347.9277" cy="888.0855" fill="#F1F1F1" rx="68.4277" ry="16.0855" style="stroke:#181818;stroke-width:0.5;"/><text fill="#000000" font-family="sans-serif" font-size="14" lengthAdjust="spacing" textLength="83" x="303.4277" y="892.6021">Importer plan</text></g><g id="elem_UC11"><ellipse cx="348.2046" cy="962.9409" fill="#F1F1F1" rx="107.7046" ry="23.9409" style="stroke:#181818;stroke-width:0.5;"/><text fill="#000000" font-family="sans-serif" font-size="14" lengthAdjust="spacing" textLength="178" x="259.2046" y="966.6694">Modifier ordre des livraisons</text></g><g id="elem_UC12"><ellipse cx="347.8414" cy="1049.0683" fill="#F1F1F1" rx="123.3414" ry="27.0683" style="stroke:#181818;stroke-width:0.5;"/><text fill="#000000" font-family="sans-serif" font-size="14" lengthAdjust="spacing" textLength="212" x="241.8414" y="1052.7968">Sauvegarder la liste des requests</text></g><g id="elem_UC13"><ellipse cx="347.7614" cy="1135.8523" fill="#F1F1F1" rx="112.2614" ry="24.8523" style="stroke:#181818;stroke-width:0.5;"/><text fill="#000000" font-family="sans-serif" font-size="14" lengthAdjust="spacing" textLength="188" x="253.7614" y="1139.5808">Afficher details d'une livraison</text></g><g id="elem_UC14"><ellipse cx="347.8525" cy="300.8705" fill="#F1F1F1" rx="74.8525" ry="17.3705" style="stroke:#181818;stroke-width:0.5;"/><text fill="#000000" font-family="sans-serif" font-size="14" lengthAdjust="spacing" textLength="101" x="294.3525" y="305.3871">Afficher tourn&#233;e</text></g><!--entity User--><g id="elem_User"><ellipse cx="37" cy="771.5" fill="#F1F1F1" rx="8" ry="8" style="stroke:#181818;stroke-width:0.5;"/><path d="M37,779.5 L37,806.5 M24,787.5 L50,787.5 M37,806.5 L24,821.5 M37,806.5 L50,821.5 " fill="none" style="stroke:#181818;stroke-width:0.5;"/><text fill="#000000" font-family="sans-serif" font-size="14" lengthAdjust="spacing" textLength="62" x="6" y="837.5332">Utilisateur</text></g><!--entity DB--><g id="elem_DB"><path d="M572,701.5 C572,691.5 637.5,691.5 637.5,691.5 C637.5,691.5 703,691.5 703,701.5 L703,728.1094 C703,738.1094 637.5,738.1094 637.5,738.1094 C637.5,738.1094 572,738.1094 572,728.1094 L572,701.5 " fill="#F1F1F1" style="stroke:#181818;stroke-width:0.5;"/><path d="M572,701.5 C572,711.5 637.5,711.5 637.5,711.5 C637.5,711.5 703,711.5 703,701.5 " fill="none" style="stroke:#181818;stroke-width:0.5;"/><text fill="#000000" font-family="sans-serif" font-size="14" lengthAdjust="spacing" textLength="111" x="582" y="730.0332">Base de donn&#233;es</text></g><!--link UC2 to UC7--><g id="link_UC2_UC7"><path d="M244.38,474.68 C198.64,462.43 151.34,438.96 134,394 C129.67,382.77 100.22,164.27 163,96 C191.1,65.44 230.8527,56.7685 269.8227,55.6085 " fill="none" id="UC2-to-UC7" style="stroke:#181818;stroke-width:1.0;stroke-dasharray:7.0,7.0;"/><polygon fill="#181818" points="275.82,55.43,266.705,51.6996,270.8222,55.5788,266.943,59.696,275.82,55.43" style="stroke:#181818;stroke-width:1.0;"/><text fill="#000000" font-family="sans-serif" font-size="13" lengthAdjust="spacing" textLength="55" x="99" y="390.4951">&#171;include&#187;</text></g><!--link UC2 to UC8--><g id="link_UC2_UC8"><path d="M245.09,474.51 C214.52,465.52 183.71,450.63 163,426 C102.65,354.22 110.03,307.66 134,217 C140.67,191.79 141.78,181.16 163,166 C194.12,143.77 229.458,135.1288 265.158,131.6688 " fill="none" id="UC2-to-UC8" style="stroke:#181818;stroke-width:1.0;stroke-dasharray:7.0,7.0;"/><polygon fill="#181818" points="271.13,131.09,261.7861,127.9769,266.1533,131.5723,262.5578,135.9395,271.13,131.09" style="stroke:#181818;stroke-width:1.0;"/><text fill="#000000" font-family="sans-serif" font-size="13" lengthAdjust="spacing" textLength="55" x="99" y="231.4951">&#171;include&#187;</text></g><!--link UC2 to UC9--><g id="link_UC2_UC9"><path d="M348,461.48 C348,444.81 348,429.72 348,414.78 " fill="none" id="UC2-to-UC9" style="stroke:#181818;stroke-width:1.0;stroke-dasharray:7.0,7.0;"/><polygon fill="#181818" points="348,408.78,344,417.78,348,413.78,352,417.78,348,408.78" style="stroke:#181818;stroke-width:1.0;"/><text fill="#000000" font-family="sans-serif" font-size="13" lengthAdjust="spacing" textLength="55" x="308.5" y="440.4951">&#171;include&#187;</text></g><!--link UC9 to UC14--><g id="link_UC9_UC14"><path d="M348,371.13 C348,355.61 348,339.8 348,324.64 " fill="none" id="UC9-to-UC14" style="stroke:#181818;stroke-width:1.0;stroke-dasharray:7.0,7.0;"/><polygon fill="#181818" points="348,318.64,344,327.64,348,323.64,352,327.64,348,318.64" style="stroke:#181818;stroke-width:1.0;"/><text fill="#000000" font-family="sans-serif" font-size="13" lengthAdjust="spacing" textLength="53" x="309.5" y="350.4951">&#171;extend&#187;</text></g><!--link UC14 to UC6--><g id="link_UC14_UC6"><path d="M348,283.32 C348,268.43 348,253 348,236.64 " fill="none" id="UC14-to-UC6" style="stroke:#181818;stroke-width:1.0;stroke-dasharray:7.0,7.0;"/><polygon fill="#181818" points="348,230.64,344,239.64,348,235.64,352,239.64,348,230.64" style="stroke:#181818;stroke-width:1.0;"/><text fill="#000000" font-family="sans-serif" font-size="13" lengthAdjust="spacing" textLength="55" x="308.5" y="262.4951">&#171;include&#187;</text></g><!--link User to UC1--><g id="link_User_UC1"><path d="M50.37,762.66 C67.43,715.74 103.07,639.23 163,604 C195.13,585.11 235.33,575.92 269.95,571.53 " fill="none" id="User-UC1" style="stroke:#181818;stroke-width:1.0;"/></g><!--link User to UC3--><g id="link_User_UC3"><path d="M67.21,762.87 C90.11,735.17 124.48,699.58 163,680 C194.55,663.96 232.41,654.69 265.56,649.33 " fill="none" id="User-UC3" style="stroke:#181818;stroke-width:1.0;"/></g><!--link User to UC4--><g id="link_User_UC4"><path d="M68.14,788.74 C77.67,784.6 88.25,780.06 98,776 C126.72,764.04 133.13,758.73 163,750 C202.02,738.6 246.8,729.99 282.42,724.16 " fill="none" id="User-UC4" style="stroke:#181818;stroke-width:1.0;"/></g><!--link User to UC5--><g id="link_User_UC5"><path d="M68.19,802 C96.59,802 141.43,802 186.93,802 " fill="none" id="User-UC5" style="stroke:#181818;stroke-width:1.0;"/></g><!--link User to UC2--><g id="link_User_UC2"><path d="M42.85,762.96 C52.86,701.23 82.12,582.89 163,532 C186.77,517.04 215.19,507.17 242.49,500.65 " fill="none" id="User-UC2" style="stroke:#181818;stroke-width:1.0;"/></g><!--link User to UC10--><g id="link_User_UC10"><path d="M68.16,816.67 C93.08,828.27 129.65,844.1 163,854 C203.95,866.15 251.38,874.79 287.83,880.32 " fill="none" id="User-UC10" style="stroke:#181818;stroke-width:1.0;"/></g><!--link User to UC11--><g id="link_User_UC11"><path d="M68.23,840.09 C91.39,866.71 125.64,900.95 163,921 C190.57,935.8 223.18,945.4 253.23,951.62 " fill="none" id="User-UC11" style="stroke:#181818;stroke-width:1.0;"/></g><!--link User to UC12--><g id="link_User_UC12"><path d="M50.29,841.19 C67.37,888.5 103.12,966.37 163,1004 C186.39,1018.7 214.24,1028.6 241.11,1035.26 " fill="none" id="User-UC12" style="stroke:#181818;stroke-width:1.0;"/></g><!--link User to UC13--><g id="link_User_UC13"><path d="M41.56,841.18 C49.86,906.56 76.88,1036.32 163,1093 C187.39,1109.05 217.06,1119.14 245.39,1125.47 " fill="none" id="User-UC13" style="stroke:#181818;stroke-width:1.0;"/></g><!--link UC10 to DB--><g id="link_UC10_DB"><path d="M416.71,887.3 C453.49,884.14 498.39,875.54 533,854 C578.21,825.86 610.38,770.18 625.93,738.5 " fill="none" id="UC10-DB" style="stroke:#181818;stroke-width:1.0;"/></g><!--link UC1 to DB--><g id="link_UC1_DB"><path d="M425.63,572.26 C460.17,576.8 500.41,585.91 533,604 C571.24,625.23 603.41,665.6 621.3,691.36 " fill="none" id="UC1-DB" style="stroke:#181818;stroke-width:1.0;"/></g><!--link UC3 to DB--><g id="link_UC3_DB"><path d="M418.5,654.27 C453.14,660.91 495.54,669.84 533,680 C545.63,683.43 558.97,687.55 571.72,691.74 " fill="none" id="UC3-DB" style="stroke:#181818;stroke-width:1.0;"/></g><!--link UC4 to DB--><g id="link_UC4_DB"><path d="M424.54,715 C470.29,715 528.04,715 571.7,715 " fill="none" id="UC4-DB" style="stroke:#181818;stroke-width:1.0;"/></g><!--link UC12 to DB--><g id="link_UC12_DB"><path d="M463.57,1039.15 C488.79,1032.33 513.7,1021.39 533,1004 C612.98,931.94 631.18,793.66 635.3,738.53 " fill="none" id="UC12-DB" style="stroke:#181818;stroke-width:1.0;"/></g><!--SRC=[TLDDRkCW6DrpYa_UpAfL7AUTPbH5QZlIQ1PTLJt0L_YIe61W05TJLJrGpz6B3M2dnPvOiYm_tW_mC8gs0O819tVx048wua4QpVn1QeiEMx383xYZX_2Y21ADUgU8CUJ1EAWUWrJIOw3ELO0U7Zqv9Z3W4tg2wZQzHNoCrX_lvBFcvorZRCY5wiPQ9JccQS7O8DiKbq0mdKkc2buP0-WyyPpvWDqpxT09Sc0LwdxUkxhKtA7YdOg2kEYMf59nVKLWDbpEXKvqJQdxtLhZml-YLIcwDq9kPJ-xDksJonqe-UpYCZpOQ0M5UG2bDySTN9GPlpxUNKpeTFAsgCLdHcbPbXQ-DzBBv3dEDQY-pwYiv8VE3gAh6P6W64RkPP2jJxPHdiFYP1N6YLo3_zg3FphgkPF89VdG-npzwSY7JzTexpVRhUJxQ14KK2eFubkgRjfNtPmqJGwpJgSPouNpJMeFVi3rjTHSTO8scvAwcgVM9wXrJzMhpD7VG5eCL1pBtEN4biXufU3iRFZ5lr0pGgiHkXYXvJXbCORZr7eYRbY_laN2yUPcK7mtnVUgr2m7mDZRFm00]--></g></svg>