<?xml version="1.0" encoding="us-ascii" standalone="no"?><svg xmlns="http://www.w3.org/2000/svg" xmlns:xlink="http://www.w3.org/1999/xlink" contentStyleType="text/css" height="708px" preserveAspectRatio="none" style="width:1500px;height:708px;background:#FFFFFF;" version="1.1" viewBox="0 0 1500 708" width="1500px" zoomAndPan="magnify"><defs/><g><text fill="#000000" font-family="sans-serif" font-size="14" font-weight="bold" lengthAdjust="spacing" textLength="336" x="581.25" y="29.5332">UC5 - G&#233;rer une demande de livraison (&#233;choue)</text><rect fill="#FFFFFF" height="455.2734" style="stroke:#181818;stroke-width:1.0;" width="10" x="549.5" y="153.5703"/><rect fill="#FFFFFF" height="30.3516" style="stroke:#181818;stroke-width:1.0;" width="10" x="1081.5" y="183.9219"/><rect fill="#FFFFFF" height="30.3516" style="stroke:#181818;stroke-width:1.0;" width="10" x="1081.5" y="426.7344"/><rect fill="#FFFFFF" height="91.0547" style="stroke:#181818;stroke-width:1.0;" width="10" x="1194" y="244.625"/><rect fill="#FFFFFF" height="91.0547" style="stroke:#181818;stroke-width:1.0;" width="10" x="1194" y="487.4375"/><rect fill="#FFFFFF" height="30.3516" style="stroke:#181818;stroke-width:1.0;" width="10" x="1465" y="274.9766"/><rect fill="#FFFFFF" height="30.3516" style="stroke:#181818;stroke-width:1.0;" width="10" x="1465" y="517.7891"/><line style="stroke:#181818;stroke-width:0.5;stroke-dasharray:5.0,5.0;" x1="22" x2="22" y1="121.2188" y2="626.8438"/><line style="stroke:#181818;stroke-width:0.5;stroke-dasharray:5.0,5.0;" x1="554" x2="554" y1="121.2188" y2="626.8438"/><line style="stroke:#181818;stroke-width:0.5;stroke-dasharray:5.0,5.0;" x1="1086.5" x2="1086.5" y1="121.2188" y2="626.8438"/><line style="stroke:#181818;stroke-width:0.5;stroke-dasharray:5.0,5.0;" x1="1198.5" x2="1198.5" y1="121.2188" y2="626.8438"/><line style="stroke:#181818;stroke-width:0.5;stroke-dasharray:5.0,5.0;" x1="1469.5" x2="1469.5" y1="121.2188" y2="626.8438"/><text fill="#000000" font-family="sans-serif" font-size="14" lengthAdjust="spacing" textLength="29" x="5" y="118.1426">User</text><ellipse cx="22.5" cy="52.1094" fill="#E2E2F0" rx="8" ry="8" style="stroke:#181818;stroke-width:0.5;"/><path d="M22.5,60.1094 L22.5,87.1094 M9.5,68.1094 L35.5,68.1094 M22.5,87.1094 L9.5,102.1094 M22.5,87.1094 L35.5,102.1094 " fill="none" style="stroke:#181818;stroke-width:0.5;"/><text fill="#000000" font-family="sans-serif" font-size="14" lengthAdjust="spacing" textLength="29" x="5" y="640.377">User</text><ellipse cx="22.5" cy="651.9531" fill="#E2E2F0" rx="8" ry="8" style="stroke:#181818;stroke-width:0.5;"/><path d="M22.5,659.9531 L22.5,686.9531 M9.5,667.9531 L35.5,667.9531 M22.5,686.9531 L9.5,701.9531 M22.5,686.9531 L35.5,701.9531 " fill="none" style="stroke:#181818;stroke-width:0.5;"/><rect fill="#E2E2F0" height="31.6094" rx="2.5" ry="2.5" style="stroke:#181818;stroke-width:0.5;" width="129" x="490" y="88.6094"/><text fill="#000000" font-family="sans-serif" font-size="14" lengthAdjust="spacing" textLength="115" x="497" y="110.1426">RequestController</text><rect fill="#E2E2F0" height="31.6094" rx="2.5" ry="2.5" style="stroke:#181818;stroke-width:0.5;" width="129" x="490" y="625.8438"/><text fill="#000000" font-family="sans-serif" font-size="14" lengthAdjust="spacing" textLength="115" x="497" y="647.377">RequestController</text><rect fill="#E2E2F0" height="31.6094" rx="2.5" ry="2.5" style="stroke:#181818;stroke-width:0.5;" width="114" x="1029.5" y="88.6094"/><text fill="#000000" font-family="sans-serif" font-size="14" lengthAdjust="spacing" textLength="100" x="1036.5" y="110.1426">RequestService</text><rect fill="#E2E2F0" height="31.6094" rx="2.5" ry="2.5" style="stroke:#181818;stroke-width:0.5;" width="114" x="1029.5" y="625.8438"/><text fill="#000000" font-family="sans-serif" font-size="14" lengthAdjust="spacing" textLength="100" x="1036.5" y="647.377">RequestService</text><rect fill="#E2E2F0" height="31.6094" rx="2.5" ry="2.5" style="stroke:#181818;stroke-width:0.5;" width="91" x="1153.5" y="88.6094"/><text fill="#000000" font-family="sans-serif" font-size="14" lengthAdjust="spacing" textLength="77" x="1160.5" y="110.1426">TourService</text><rect fill="#E2E2F0" height="31.6094" rx="2.5" ry="2.5" style="stroke:#181818;stroke-width:0.5;" width="91" x="1153.5" y="625.8438"/><text fill="#000000" font-family="sans-serif" font-size="14" lengthAdjust="spacing" textLength="77" x="1160.5" y="647.377">TourService</text><rect fill="#E2E2F0" height="31.6094" rx="2.5" ry="2.5" style="stroke:#181818;stroke-width:0.5;" width="49" x="1445.5" y="88.6094"/><text fill="#000000" font-family="sans-serif" font-size="14" lengthAdjust="spacing" textLength="35" x="1452.5" y="110.1426">TSP1</text><rect fill="#E2E2F0" height="31.6094" rx="2.5" ry="2.5" style="stroke:#181818;stroke-width:0.5;" width="49" x="1445.5" y="625.8438"/><text fill="#000000" font-family="sans-serif" font-size="14" lengthAdjust="spacing" textLength="35" x="1452.5" y="647.377">TSP1</text><rect fill="#FFFFFF" height="455.2734" style="stroke:#181818;stroke-width:1.0;" width="10" x="549.5" y="153.5703"/><rect fill="#FFFFFF" height="30.3516" style="stroke:#181818;stroke-width:1.0;" width="10" x="1081.5" y="183.9219"/><rect fill="#FFFFFF" height="30.3516" style="stroke:#181818;stroke-width:1.0;" width="10" x="1081.5" y="426.7344"/><rect fill="#FFFFFF" height="91.0547" style="stroke:#181818;stroke-width:1.0;" width="10" x="1194" y="244.625"/><rect fill="#FFFFFF" height="91.0547" style="stroke:#181818;stroke-width:1.0;" width="10" x="1194" y="487.4375"/><rect fill="#FFFFFF" height="30.3516" style="stroke:#181818;stroke-width:1.0;" width="10" x="1465" y="274.9766"/><rect fill="#FFFFFF" height="30.3516" style="stroke:#181818;stroke-width:1.0;" width="10" x="1465" y="517.7891"/><polygon fill="#181818" points="537.5,149.5703,547.5,153.5703,537.5,157.5703,541.5,153.5703" style="stroke:#181818;stroke-width:1.0;"/><line style="stroke:#181818;stroke-width:1.0;" x1="22.5" x2="543.5" y1="153.5703" y2="153.5703"/><text fill="#000000" font-family="sans-serif" font-size="13" lengthAdjust="spacing" textLength="503" x="29.5" y="148.7139">addRequest(courierId: String, pickupIntersectionId: String, deliveryIntersectionId: String)</text><polygon fill="#181818" points="1069.5,179.9219,1079.5,183.9219,1069.5,187.9219,1073.5,183.9219" style="stroke:#181818;stroke-width:1.0;"/><line style="stroke:#181818;stroke-width:1.0;" x1="559.5" x2="1075.5" y1="183.9219" y2="183.9219"/><text fill="#000000" font-family="sans-serif" font-size="13" lengthAdjust="spacing" textLength="503" x="566.5" y="179.0654">addRequest(courierId: String, pickupIntersectionId: String, deliveryIntersectionId: String)</text><polygon fill="#181818" points="570.5,210.2734,560.5,214.2734,570.5,218.2734,566.5,214.2734" style="stroke:#181818;stroke-width:1.0;"/><line style="stroke:#181818;stroke-width:1.0;stroke-dasharray:2.0,2.0;" x1="564.5" x2="1085.5" y1="214.2734" y2="214.2734"/><text fill="#000000" font-family="sans-serif" font-size="13" lengthAdjust="spacing" textLength="53" x="576.5" y="209.417">requestId</text><polygon fill="#181818" points="1182,240.625,1192,244.625,1182,248.625,1186,244.625" style="stroke:#181818;stroke-width:1.0;"/><line style="stroke:#181818;stroke-width:1.0;" x1="559.5" x2="1188" y1="244.625" y2="244.625"/><text fill="#000000" font-family="sans-serif" font-size="13" lengthAdjust="spacing" textLength="192" x="566.5" y="239.7686">computeTourForCourier(courierId)</text><polygon fill="#181818" points="1453,270.9766,1463,274.9766,1453,278.9766,1457,274.9766" style="stroke:#181818;stroke-width:1.0;"/><line style="stroke:#181818;stroke-width:1.0;" x1="1204" x2="1459" y1="274.9766" y2="274.9766"/><text fill="#000000" font-family="sans-serif" font-size="13" lengthAdjust="spacing" textLength="158" x="1211" y="270.1201">chercheSolution(...)  // TSP</text><polygon fill="#181818" points="1215,301.3281,1205,305.3281,1215,309.3281,1211,305.3281" style="stroke:#181818;stroke-width:1.0;"/><line style="stroke:#181818;stroke-width:1.0;stroke-dasharray:2.0,2.0;" x1="1209" x2="1469" y1="305.3281" y2="305.3281"/><text fill="#000000" font-family="sans-serif" font-size="13" lengthAdjust="spacing" textLength="237" x="1221" y="300.4717">erreur pas posible de trouver une solution</text><polygon fill="#181818" points="570.5,331.6797,560.5,335.6797,570.5,339.6797,566.5,335.6797" style="stroke:#181818;stroke-width:1.0;"/><line style="stroke:#181818;stroke-width:1.0;stroke-dasharray:2.0,2.0;" x1="564.5" x2="1198" y1="335.6797" y2="335.6797"/><text fill="#000000" font-family="sans-serif" font-size="13" lengthAdjust="spacing" textLength="40" x="576.5" y="330.8232">erreour</text><polygon fill="#181818" points="33.5,362.0313,23.5,366.0313,33.5,370.0313,29.5,366.0313" style="stroke:#181818;stroke-width:1.0;"/><line style="stroke:#181818;stroke-width:1.0;stroke-dasharray:2.0,2.0;" x1="27.5" x2="548.5" y1="366.0313" y2="366.0313"/><text fill="#000000" font-family="sans-serif" font-size="13" lengthAdjust="spacing" textLength="204" x="39.5" y="361.1748">"Demande de changer les couriers"</text><polygon fill="#181818" points="537.5,392.3828,547.5,396.3828,537.5,400.3828,541.5,396.3828" style="stroke:#181818;stroke-width:1.0;"/><line style="stroke:#181818;stroke-width:1.0;" x1="22.5" x2="543.5" y1="396.3828" y2="396.3828"/><text fill="#000000" font-family="sans-serif" font-size="13" lengthAdjust="spacing" textLength="503" x="29.5" y="391.5264">addRequest(courierId: String, pickupIntersectionId: String, deliveryIntersectionId: String)</text><polygon fill="#181818" points="1069.5,422.7344,1079.5,426.7344,1069.5,430.7344,1073.5,426.7344" style="stroke:#181818;stroke-width:1.0;"/><line style="stroke:#181818;stroke-width:1.0;" x1="559.5" x2="1075.5" y1="426.7344" y2="426.7344"/><text fill="#000000" font-family="sans-serif" font-size="13" lengthAdjust="spacing" textLength="503" x="566.5" y="421.8779">addRequest(courierId: String, pickupIntersectionId: String, deliveryIntersectionId: String)</text><polygon fill="#181818" points="570.5,453.0859,560.5,457.0859,570.5,461.0859,566.5,457.0859" style="stroke:#181818;stroke-width:1.0;"/><line style="stroke:#181818;stroke-width:1.0;stroke-dasharray:2.0,2.0;" x1="564.5" x2="1085.5" y1="457.0859" y2="457.0859"/><text fill="#000000" font-family="sans-serif" font-size="13" lengthAdjust="spacing" textLength="53" x="576.5" y="452.2295">requestId</text><polygon fill="#181818" points="1182,483.4375,1192,487.4375,1182,491.4375,1186,487.4375" style="stroke:#181818;stroke-width:1.0;"/><line style="stroke:#181818;stroke-width:1.0;" x1="559.5" x2="1188" y1="487.4375" y2="487.4375"/><text fill="#000000" font-family="sans-serif" font-size="13" lengthAdjust="spacing" textLength="192" x="566.5" y="482.5811">computeTourForCourier(courierId)</text><polygon fill="#181818" points="1453,513.7891,1463,517.7891,1453,521.7891,1457,517.7891" style="stroke:#181818;stroke-width:1.0;"/><line style="stroke:#181818;stroke-width:1.0;" x1="1204" x2="1459" y1="517.7891" y2="517.7891"/><text fill="#000000" font-family="sans-serif" font-size="13" lengthAdjust="spacing" textLength="158" x="1211" y="512.9326">chercheSolution(...)  // TSP</text><polygon fill="#181818" points="1215,544.1406,1205,548.1406,1215,552.1406,1211,548.1406" style="stroke:#181818;stroke-width:1.0;"/><line style="stroke:#181818;stroke-width:1.0;stroke-dasharray:2.0,2.0;" x1="1209" x2="1469" y1="548.1406" y2="548.1406"/><text fill="#000000" font-family="sans-serif" font-size="13" lengthAdjust="spacing" textLength="50" x="1221" y="543.2842">bestTour</text><polygon fill="#181818" points="570.5,574.4922,560.5,578.4922,570.5,582.4922,566.5,578.4922" style="stroke:#181818;stroke-width:1.0;"/><line style="stroke:#181818;stroke-width:1.0;stroke-dasharray:2.0,2.0;" x1="564.5" x2="1198" y1="578.4922" y2="578.4922"/><text fill="#000000" font-family="sans-serif" font-size="13" lengthAdjust="spacing" textLength="71" x="576.5" y="573.6357">updatedTour</text><polygon fill="#181818" points="33.5,604.8438,23.5,608.8438,33.5,612.8438,29.5,608.8438" style="stroke:#181818;stroke-width:1.0;"/><line style="stroke:#181818;stroke-width:1.0;stroke-dasharray:2.0,2.0;" x1="27.5" x2="553.5" y1="608.8438" y2="608.8438"/><text fill="#000000" font-family="sans-serif" font-size="13" lengthAdjust="spacing" textLength="241" x="39.5" y="603.9873">"Demande ajout&#233;e et tourn&#233;e mise &#224; jour"</text><!--SRC=[xLAnRi8m4Dtz5QTC81KGGnU6BgbQiI4IFi3O9t0RxFHiH-hVTEKxycCzao12oz29gKFaoFVktdk-5qoe43Rv8qpWjJqI4aIBeF4WhKudLAOXQRopC6gFQkyYZeMGAZY2ZKSIjQHWbAcb3P2jyIEY3xcpWLnL8MKWFQppcwW2gJ4AEqXn3IbTf66zB8H8T31vud6m0AbrFsQa66kGbde1HI1ZTmzG6_KUwwKDI1vLCCuEgnhP5DBdxVeukJED39Y42sPBdCNTE0l1P9EpJ-e8brfe769wNMNIfToXZW7JcxquoZjf5uc3uVoCt77gMyrJvnw9ly9LCGaQJQVJCS1ibkh3hjLSd3ecPqeamaXGysfgvyssEcM5bnwRFaA-dpdKtG-wk4jZMEOrflF6aDF25v0zNzAezjBk-BP23xr1dzql6Vznk1s7BMigVotonx9ZhVbUbtzVk7npCRH710mGkCsc_uFn2EqNS8sogsV8lm40]--></g></svg>