<?xml version="1.0" encoding="us-ascii" standalone="no"?><svg xmlns="http://www.w3.org/2000/svg" xmlns:xlink="http://www.w3.org/1999/xlink" contentStyleType="text/css" height="437px" preserveAspectRatio="none" style="width:552px;height:437px;background:#FFFFFF;" version="1.1" viewBox="0 0 552 437" width="552px" zoomAndPan="magnify"><defs/><g><text fill="#000000" font-family="sans-serif" font-size="14" font-weight="bold" lengthAdjust="spacing" textLength="339" x="108.25" y="29.5332">UC11 - Sauvegarder le programme de la tourn&#233;e</text><rect fill="#FFFFFF" height="184.1094" style="stroke:#181818;stroke-width:1.0;" width="10" x="192.5" y="153.5703"/><rect fill="#FFFFFF" height="123.4063" style="stroke:#181818;stroke-width:1.0;" width="10" x="328.5" y="183.9219"/><rect fill="none" height="79.0547" style="stroke:#000000;stroke-width:1.5;" width="268.5" x="278" y="198.9219"/><line style="stroke:#181818;stroke-width:0.5;stroke-dasharray:5.0,5.0;" x1="22" x2="22" y1="121.2188" y2="355.6797"/><line style="stroke:#181818;stroke-width:0.5;stroke-dasharray:5.0,5.0;" x1="197.5" x2="197.5" y1="121.2188" y2="355.6797"/><line style="stroke:#181818;stroke-width:0.5;stroke-dasharray:5.0,5.0;" x1="333" x2="333" y1="121.2188" y2="355.6797"/><line style="stroke:#181818;stroke-width:0.5;stroke-dasharray:5.0,5.0;" x1="493.5" x2="493.5" y1="121.2188" y2="355.6797"/><text fill="#000000" font-family="sans-serif" font-size="14" lengthAdjust="spacing" textLength="29" x="5" y="118.1426">User</text><ellipse cx="22.5" cy="52.1094" fill="#E2E2F0" rx="8" ry="8" style="stroke:#181818;stroke-width:0.5;"/><path d="M22.5,60.1094 L22.5,87.1094 M9.5,68.1094 L35.5,68.1094 M22.5,87.1094 L9.5,102.1094 M22.5,87.1094 L35.5,102.1094 " fill="none" style="stroke:#181818;stroke-width:0.5;"/><text fill="#000000" font-family="sans-serif" font-size="14" lengthAdjust="spacing" textLength="29" x="5" y="369.2129">User</text><ellipse cx="22.5" cy="380.7891" fill="#E2E2F0" rx="8" ry="8" style="stroke:#181818;stroke-width:0.5;"/><path d="M22.5,388.7891 L22.5,415.7891 M9.5,396.7891 L35.5,396.7891 M22.5,415.7891 L9.5,430.7891 M22.5,415.7891 L35.5,430.7891 " fill="none" style="stroke:#181818;stroke-width:0.5;"/><rect fill="#E2E2F0" height="31.6094" rx="2.5" ry="2.5" style="stroke:#181818;stroke-width:0.5;" width="106" x="144.5" y="88.6094"/><text fill="#000000" font-family="sans-serif" font-size="14" lengthAdjust="spacing" textLength="92" x="151.5" y="110.1426">TourController</text><rect fill="#E2E2F0" height="31.6094" rx="2.5" ry="2.5" style="stroke:#181818;stroke-width:0.5;" width="106" x="144.5" y="354.6797"/><text fill="#000000" font-family="sans-serif" font-size="14" lengthAdjust="spacing" textLength="92" x="151.5" y="376.2129">TourController</text><rect fill="#E2E2F0" height="31.6094" rx="2.5" ry="2.5" style="stroke:#181818;stroke-width:0.5;" width="91" x="288" y="88.6094"/><text fill="#000000" font-family="sans-serif" font-size="14" lengthAdjust="spacing" textLength="77" x="295" y="110.1426">TourService</text><rect fill="#E2E2F0" height="31.6094" rx="2.5" ry="2.5" style="stroke:#181818;stroke-width:0.5;" width="91" x="288" y="354.6797"/><text fill="#000000" font-family="sans-serif" font-size="14" lengthAdjust="spacing" textLength="77" x="295" y="376.2129">TourService</text><rect fill="#E2E2F0" height="31.6094" rx="2.5" ry="2.5" style="stroke:#181818;stroke-width:0.5;" width="86" x="450.5" y="88.6094"/><text fill="#000000" font-family="sans-serif" font-size="14" lengthAdjust="spacing" textLength="72" x="457.5" y="110.1426">XMLWriters</text><rect fill="#E2E2F0" height="31.6094" rx="2.5" ry="2.5" style="stroke:#181818;stroke-width:0.5;" width="86" x="450.5" y="354.6797"/><text fill="#000000" font-family="sans-serif" font-size="14" lengthAdjust="spacing" textLength="72" x="457.5" y="376.2129">XMLWriters</text><rect fill="#FFFFFF" height="184.1094" style="stroke:#181818;stroke-width:1.0;" width="10" x="192.5" y="153.5703"/><rect fill="#FFFFFF" height="123.4063" style="stroke:#181818;stroke-width:1.0;" width="10" x="328.5" y="183.9219"/><polygon fill="#181818" points="180.5,149.5703,190.5,153.5703,180.5,157.5703,184.5,153.5703" style="stroke:#181818;stroke-width:1.0;"/><line style="stroke:#181818;stroke-width:1.0;" x1="22.5" x2="186.5" y1="153.5703" y2="153.5703"/><text fill="#000000" font-family="sans-serif" font-size="13" lengthAdjust="spacing" textLength="107" x="29.5" y="148.7139">saveTours(filepath)</text><polygon fill="#181818" points="316.5,179.9219,326.5,183.9219,316.5,187.9219,320.5,183.9219" style="stroke:#181818;stroke-width:1.0;"/><line style="stroke:#181818;stroke-width:1.0;" x1="202.5" x2="322.5" y1="183.9219" y2="183.9219"/><text fill="#000000" font-family="sans-serif" font-size="13" lengthAdjust="spacing" textLength="107" x="209.5" y="179.0654">saveTours(filepath)</text><path d="M278,198.9219 L351,198.9219 L351,207.2734 L341,217.2734 L278,217.2734 L278,198.9219 " fill="#EEEEEE" style="stroke:#000000;stroke-width:1.5;"/><rect fill="none" height="79.0547" style="stroke:#000000;stroke-width:1.5;" width="268.5" x="278" y="198.9219"/><text fill="#000000" font-family="sans-serif" font-size="13" font-weight="bold" lengthAdjust="spacing" textLength="28" x="293" y="213.417">loop</text><text fill="#000000" font-family="sans-serif" font-size="11" font-weight="bold" lengthAdjust="spacing" textLength="103" x="366" y="212.3408">[pour chaque tour]</text><polygon fill="#181818" points="481.5,235.625,491.5,239.625,481.5,243.625,485.5,239.625" style="stroke:#181818;stroke-width:1.0;"/><line style="stroke:#181818;stroke-width:1.0;" x1="338.5" x2="487.5" y1="239.625" y2="239.625"/><text fill="#000000" font-family="sans-serif" font-size="13" lengthAdjust="spacing" textLength="131" x="345.5" y="234.7686">writeTour(tour, filepath)</text><polygon fill="#181818" points="349.5,265.9766,339.5,269.9766,349.5,273.9766,345.5,269.9766" style="stroke:#181818;stroke-width:1.0;"/><line style="stroke:#181818;stroke-width:1.0;stroke-dasharray:2.0,2.0;" x1="343.5" x2="492.5" y1="269.9766" y2="269.9766"/><text fill="#000000" font-family="sans-serif" font-size="13" lengthAdjust="spacing" textLength="70" x="355.5" y="265.1201">confirmation</text><polygon fill="#181818" points="213.5,303.3281,203.5,307.3281,213.5,311.3281,209.5,307.3281" style="stroke:#181818;stroke-width:1.0;"/><line style="stroke:#181818;stroke-width:1.0;stroke-dasharray:2.0,2.0;" x1="207.5" x2="332.5" y1="307.3281" y2="307.3281"/><text fill="#000000" font-family="sans-serif" font-size="13" lengthAdjust="spacing" textLength="70" x="219.5" y="302.4717">confirmation</text><polygon fill="#181818" points="33.5,333.6797,23.5,337.6797,33.5,341.6797,29.5,337.6797" style="stroke:#181818;stroke-width:1.0;"/><line style="stroke:#181818;stroke-width:1.0;stroke-dasharray:2.0,2.0;" x1="27.5" x2="196.5" y1="337.6797" y2="337.6797"/><text fill="#000000" font-family="sans-serif" font-size="13" lengthAdjust="spacing" textLength="146" x="39.5" y="332.8232">"Programme sauvegard&#233;"</text><!--SRC=[XP4nRiCm34LtdOBmb0Bra3L35wyDK409x9MmcKI0BAaKxPufvyZ5IZb82xT3DEe__lyfYHDFS6osMwZ1uZJJ6NaW1hrD7C-CuqWm47W4YHE7svMCmLuYmp4JcuGihdS9Wq1rKAA9GJXwJrm1PZWq_n5BFBkUxhfTwzt-lMKdn7cHkzQOaWFrcrh13ZBEL3povkGy9PJBIwdZPXGgOKQfmjgdh3N6nvWWAG7z1JydMbOqe4VdrQLhrUMhr2ascwA-mgzN0HMf7tbz32V78ugBmL0Oj8ozgyrVTQ1LaL9QkMNJ7LGVFo-V7rzokrQheSPy0m00]--></g></svg>