<?xml version="1.0" encoding="us-ascii" standalone="no"?><svg xmlns="http://www.w3.org/2000/svg" xmlns:xlink="http://www.w3.org/1999/xlink" contentStyleType="text/css" height="431px" preserveAspectRatio="none" style="width:877px;height:431px;background:#FFFFFF;" version="1.1" viewBox="0 0 877 431" width="877px" zoomAndPan="magnify"><defs/><g><text fill="#000000" font-family="sans-serif" font-size="14" font-weight="bold" lengthAdjust="spacing" textLength="256" x="312.75" y="29.5332">UC4 - Modifier le nombre de livreurs</text><rect fill="#FFFFFF" height="177.7578" style="stroke:#181818;stroke-width:1.0;" width="10" x="307.5" y="153.5703"/><rect fill="#FFFFFF" height="117.0547" style="stroke:#181818;stroke-width:1.0;" width="10" x="602.5" y="183.9219"/><line style="stroke:#181818;stroke-width:0.5;stroke-dasharray:5.0,5.0;" x1="22" x2="22" y1="121.2188" y2="349.3281"/><line style="stroke:#181818;stroke-width:0.5;stroke-dasharray:5.0,5.0;" x1="312.5" x2="312.5" y1="121.2188" y2="349.3281"/><line style="stroke:#181818;stroke-width:0.5;stroke-dasharray:5.0,5.0;" x1="607" x2="607" y1="121.2188" y2="349.3281"/><text fill="#000000" font-family="sans-serif" font-size="14" lengthAdjust="spacing" textLength="29" x="5" y="118.1426">User</text><ellipse cx="22.5" cy="52.1094" fill="#E2E2F0" rx="8" ry="8" style="stroke:#181818;stroke-width:0.5;"/><path d="M22.5,60.1094 L22.5,87.1094 M9.5,68.1094 L35.5,68.1094 M22.5,87.1094 L9.5,102.1094 M22.5,87.1094 L35.5,102.1094 " fill="none" style="stroke:#181818;stroke-width:0.5;"/><text fill="#000000" font-family="sans-serif" font-size="14" lengthAdjust="spacing" textLength="29" x="5" y="362.8613">User</text><ellipse cx="22.5" cy="374.4375" fill="#E2E2F0" rx="8" ry="8" style="stroke:#181818;stroke-width:0.5;"/><path d="M22.5,382.4375 L22.5,409.4375 M9.5,390.4375 L35.5,390.4375 M22.5,409.4375 L9.5,424.4375 M22.5,409.4375 L35.5,424.4375 " fill="none" style="stroke:#181818;stroke-width:0.5;"/><rect fill="#E2E2F0" height="31.6094" rx="2.5" ry="2.5" style="stroke:#181818;stroke-width:0.5;" width="106" x="259.5" y="88.6094"/><text fill="#000000" font-family="sans-serif" font-size="14" lengthAdjust="spacing" textLength="92" x="266.5" y="110.1426">TourController</text><rect fill="#E2E2F0" height="31.6094" rx="2.5" ry="2.5" style="stroke:#181818;stroke-width:0.5;" width="106" x="259.5" y="348.3281"/><text fill="#000000" font-family="sans-serif" font-size="14" lengthAdjust="spacing" textLength="92" x="266.5" y="369.8613">TourController</text><rect fill="#E2E2F0" height="31.6094" rx="2.5" ry="2.5" style="stroke:#181818;stroke-width:0.5;" width="91" x="562" y="88.6094"/><text fill="#000000" font-family="sans-serif" font-size="14" lengthAdjust="spacing" textLength="77" x="569" y="110.1426">TourService</text><rect fill="#E2E2F0" height="31.6094" rx="2.5" ry="2.5" style="stroke:#181818;stroke-width:0.5;" width="91" x="562" y="348.3281"/><text fill="#000000" font-family="sans-serif" font-size="14" lengthAdjust="spacing" textLength="77" x="569" y="369.8613">TourService</text><rect fill="#FFFFFF" height="177.7578" style="stroke:#181818;stroke-width:1.0;" width="10" x="307.5" y="153.5703"/><rect fill="#FFFFFF" height="117.0547" style="stroke:#181818;stroke-width:1.0;" width="10" x="602.5" y="183.9219"/><polygon fill="#181818" points="295.5,149.5703,305.5,153.5703,295.5,157.5703,299.5,153.5703" style="stroke:#181818;stroke-width:1.0;"/><line style="stroke:#181818;stroke-width:1.0;" x1="22.5" x2="301.5" y1="153.5703" y2="153.5703"/><text fill="#000000" font-family="sans-serif" font-size="13" lengthAdjust="spacing" textLength="266" x="29.5" y="148.7139">updateNumCouriers(num, list&lt;NewCourierID&gt;)</text><polygon fill="#181818" points="590.5,179.9219,600.5,183.9219,590.5,187.9219,594.5,183.9219" style="stroke:#181818;stroke-width:1.0;"/><line style="stroke:#181818;stroke-width:1.0;" x1="317.5" x2="596.5" y1="183.9219" y2="183.9219"/><text fill="#000000" font-family="sans-serif" font-size="13" lengthAdjust="spacing" textLength="266" x="324.5" y="179.0654">updateNumCouriers(num, list&lt;NewCourierID&gt;)</text><line style="stroke:#181818;stroke-width:1.0;" x1="612.5" x2="654.5" y1="214.2734" y2="214.2734"/><line style="stroke:#181818;stroke-width:1.0;" x1="654.5" x2="654.5" y1="214.2734" y2="227.2734"/><line style="stroke:#181818;stroke-width:1.0;" x1="613.5" x2="654.5" y1="227.2734" y2="227.2734"/><polygon fill="#181818" points="623.5,223.2734,613.5,227.2734,623.5,231.2734,619.5,227.2734" style="stroke:#181818;stroke-width:1.0;"/><text fill="#000000" font-family="sans-serif" font-size="13" lengthAdjust="spacing" textLength="114" x="619.5" y="209.417">numCouriers = num</text><line style="stroke:#181818;stroke-width:1.0;" x1="612.5" x2="654.5" y1="257.625" y2="257.625"/><line style="stroke:#181818;stroke-width:1.0;" x1="654.5" x2="654.5" y1="257.625" y2="270.625"/><line style="stroke:#181818;stroke-width:1.0;" x1="613.5" x2="654.5" y1="270.625" y2="270.625"/><polygon fill="#181818" points="623.5,266.625,613.5,270.625,623.5,274.625,619.5,270.625" style="stroke:#181818;stroke-width:1.0;"/><text fill="#000000" font-family="sans-serif" font-size="13" lengthAdjust="spacing" textLength="251" x="619.5" y="252.7686">assignRequestsToCouriers(List&lt;courierID&gt;)</text><polygon fill="#181818" points="328.5,296.9766,318.5,300.9766,328.5,304.9766,324.5,300.9766" style="stroke:#181818;stroke-width:1.0;"/><line style="stroke:#181818;stroke-width:1.0;stroke-dasharray:2.0,2.0;" x1="322.5" x2="606.5" y1="300.9766" y2="300.9766"/><text fill="#000000" font-family="sans-serif" font-size="13" lengthAdjust="spacing" textLength="78" x="334.5" y="296.1201">updatedTours</text><polygon fill="#181818" points="33.5,327.3281,23.5,331.3281,33.5,335.3281,29.5,331.3281" style="stroke:#181818;stroke-width:1.0;"/><line style="stroke:#181818;stroke-width:1.0;stroke-dasharray:2.0,2.0;" x1="27.5" x2="311.5" y1="331.3281" y2="331.3281"/><text fill="#000000" font-family="sans-serif" font-size="13" lengthAdjust="spacing" textLength="178" x="39.5" y="326.4717">"Nombre de livreurs mis &#224; jour"</text><!--SRC=[dP0zRiCm38LtdOBmb0B9rYbeigXBWTP3x1n0jTY2XIsvfEHUftVfnKAvFucHhQF8zxttn4IfHpZQMzZ0K_JqGiYWan27PqRm23rDZ9d56DUbo70KP3CwJjJHw4A2gesPRGo9OzyZL-04MdijQP0dwl1xtnXJZ62pLori8O_U9QppO5Mf7MGLyh3MS4btDNxyJ1_kzpUb1aqgBY56uMBH_DT2UoZyQn7ECEpAwtBfHEWr7F0zeoHfur_COqdeplOmKykV-N81CHwNqNRMpPVOGbLV7Hq64lZwX3UbgmLjJm00]--></g></svg>