<?xml version="1.0" encoding="us-ascii" standalone="no"?><svg xmlns="http://www.w3.org/2000/svg" xmlns:xlink="http://www.w3.org/1999/xlink" contentStyleType="text/css" height="760px" preserveAspectRatio="none" style="width:1151px;height:760px;background:#FFFFFF;" version="1.1" viewBox="0 0 1151 760" width="1151px" zoomAndPan="magnify"><defs/><g><text fill="#000000" font-family="sans-serif" font-size="14" font-weight="bold" lengthAdjust="spacing" textLength="329" x="410" y="29.5332">UC10 - Modifier l&#8217;ordre de la livraison (&#233;choue)</text><rect fill="#FFFFFF" height="507.2734" style="stroke:#181818;stroke-width:1.0;" width="10" x="351.5" y="153.5703"/><rect fill="#FFFFFF" height="177.7578" style="stroke:#181818;stroke-width:1.0;" width="10" x="685.5" y="183.9219"/><rect fill="#FFFFFF" height="177.7578" style="stroke:#181818;stroke-width:1.0;" width="10" x="685.5" y="452.7344"/><rect fill="#FFFFFF" height="30.3516" style="stroke:#181818;stroke-width:1.0;" width="10" x="1115.5" y="300.9766"/><rect fill="#FFFFFF" height="30.3516" style="stroke:#181818;stroke-width:1.0;" width="10" x="1115.5" y="569.7891"/><line style="stroke:#181818;stroke-width:0.5;stroke-dasharray:5.0,5.0;" x1="22" x2="22" y1="121.2188" y2="678.8438"/><line style="stroke:#181818;stroke-width:0.5;stroke-dasharray:5.0,5.0;" x1="356.5" x2="356.5" y1="121.2188" y2="678.8438"/><line style="stroke:#181818;stroke-width:0.5;stroke-dasharray:5.0,5.0;" x1="690" x2="690" y1="121.2188" y2="678.8438"/><line style="stroke:#181818;stroke-width:0.5;stroke-dasharray:5.0,5.0;" x1="1120" x2="1120" y1="121.2188" y2="678.8438"/><text fill="#000000" font-family="sans-serif" font-size="14" lengthAdjust="spacing" textLength="29" x="5" y="118.1426">User</text><ellipse cx="22.5" cy="52.1094" fill="#E2E2F0" rx="8" ry="8" style="stroke:#181818;stroke-width:0.5;"/><path d="M22.5,60.1094 L22.5,87.1094 M9.5,68.1094 L35.5,68.1094 M22.5,87.1094 L9.5,102.1094 M22.5,87.1094 L35.5,102.1094 " fill="none" style="stroke:#181818;stroke-width:0.5;"/><text fill="#000000" font-family="sans-serif" font-size="14" lengthAdjust="spacing" textLength="29" x="5" y="692.377">User</text><ellipse cx="22.5" cy="703.9531" fill="#E2E2F0" rx="8" ry="8" style="stroke:#181818;stroke-width:0.5;"/><path d="M22.5,711.9531 L22.5,738.9531 M9.5,719.9531 L35.5,719.9531 M22.5,738.9531 L9.5,753.9531 M22.5,738.9531 L35.5,753.9531 " fill="none" style="stroke:#181818;stroke-width:0.5;"/><rect fill="#E2E2F0" height="31.6094" rx="2.5" ry="2.5" style="stroke:#181818;stroke-width:0.5;" width="106" x="303.5" y="88.6094"/><text fill="#000000" font-family="sans-serif" font-size="14" lengthAdjust="spacing" textLength="92" x="310.5" y="110.1426">TourController</text><rect fill="#E2E2F0" height="31.6094" rx="2.5" ry="2.5" style="stroke:#181818;stroke-width:0.5;" width="106" x="303.5" y="677.8438"/><text fill="#000000" font-family="sans-serif" font-size="14" lengthAdjust="spacing" textLength="92" x="310.5" y="699.377">TourController</text><rect fill="#E2E2F0" height="31.6094" rx="2.5" ry="2.5" style="stroke:#181818;stroke-width:0.5;" width="91" x="645" y="88.6094"/><text fill="#000000" font-family="sans-serif" font-size="14" lengthAdjust="spacing" textLength="77" x="652" y="110.1426">TourService</text><rect fill="#E2E2F0" height="31.6094" rx="2.5" ry="2.5" style="stroke:#181818;stroke-width:0.5;" width="91" x="645" y="677.8438"/><text fill="#000000" font-family="sans-serif" font-size="14" lengthAdjust="spacing" textLength="77" x="652" y="699.377">TourService</text><rect fill="#E2E2F0" height="31.6094" rx="2.5" ry="2.5" style="stroke:#181818;stroke-width:0.5;" width="49" x="1096" y="88.6094"/><text fill="#000000" font-family="sans-serif" font-size="14" lengthAdjust="spacing" textLength="35" x="1103" y="110.1426">TSP1</text><rect fill="#E2E2F0" height="31.6094" rx="2.5" ry="2.5" style="stroke:#181818;stroke-width:0.5;" width="49" x="1096" y="677.8438"/><text fill="#000000" font-family="sans-serif" font-size="14" lengthAdjust="spacing" textLength="35" x="1103" y="699.377">TSP1</text><rect fill="#FFFFFF" height="507.2734" style="stroke:#181818;stroke-width:1.0;" width="10" x="351.5" y="153.5703"/><rect fill="#FFFFFF" height="177.7578" style="stroke:#181818;stroke-width:1.0;" width="10" x="685.5" y="183.9219"/><rect fill="#FFFFFF" height="177.7578" style="stroke:#181818;stroke-width:1.0;" width="10" x="685.5" y="452.7344"/><rect fill="#FFFFFF" height="30.3516" style="stroke:#181818;stroke-width:1.0;" width="10" x="1115.5" y="300.9766"/><rect fill="#FFFFFF" height="30.3516" style="stroke:#181818;stroke-width:1.0;" width="10" x="1115.5" y="569.7891"/><polygon fill="#181818" points="339.5,149.5703,349.5,153.5703,339.5,157.5703,343.5,153.5703" style="stroke:#181818;stroke-width:1.0;"/><line style="stroke:#181818;stroke-width:1.0;" x1="22.5" x2="345.5" y1="153.5703" y2="153.5703"/><text fill="#000000" font-family="sans-serif" font-size="13" lengthAdjust="spacing" textLength="305" x="29.5" y="148.7139">updateRequestOrder(requestBeforeId, requestAfterId)</text><polygon fill="#181818" points="673.5,179.9219,683.5,183.9219,673.5,187.9219,677.5,183.9219" style="stroke:#181818;stroke-width:1.0;"/><line style="stroke:#181818;stroke-width:1.0;" x1="361.5" x2="679.5" y1="183.9219" y2="183.9219"/><text fill="#000000" font-family="sans-serif" font-size="13" lengthAdjust="spacing" textLength="305" x="368.5" y="179.0654">updateRequestOrder(requestBeforeId, requestAfterId)</text><line style="stroke:#181818;stroke-width:1.0;" x1="695.5" x2="737.5" y1="214.2734" y2="214.2734"/><line style="stroke:#181818;stroke-width:1.0;" x1="737.5" x2="737.5" y1="214.2734" y2="227.2734"/><line style="stroke:#181818;stroke-width:1.0;" x1="696.5" x2="737.5" y1="227.2734" y2="227.2734"/><polygon fill="#181818" points="706.5,223.2734,696.5,227.2734,706.5,231.2734,702.5,227.2734" style="stroke:#181818;stroke-width:1.0;"/><text fill="#000000" font-family="sans-serif" font-size="13" lengthAdjust="spacing" textLength="406" x="702.5" y="209.417">apply precedence constraint(requestBeforeId, requestAfterId, courierId)</text><line style="stroke:#181818;stroke-width:1.0;" x1="695.5" x2="737.5" y1="257.625" y2="257.625"/><line style="stroke:#181818;stroke-width:1.0;" x1="737.5" x2="737.5" y1="257.625" y2="270.625"/><line style="stroke:#181818;stroke-width:1.0;" x1="696.5" x2="737.5" y1="270.625" y2="270.625"/><polygon fill="#181818" points="706.5,266.625,696.5,270.625,706.5,274.625,702.5,270.625" style="stroke:#181818;stroke-width:1.0;"/><text fill="#000000" font-family="sans-serif" font-size="13" lengthAdjust="spacing" textLength="192" x="702.5" y="252.7686">computeTourForCourier(courierId)</text><polygon fill="#181818" points="1103.5,296.9766,1113.5,300.9766,1103.5,304.9766,1107.5,300.9766" style="stroke:#181818;stroke-width:1.0;"/><line style="stroke:#181818;stroke-width:1.0;" x1="695.5" x2="1109.5" y1="300.9766" y2="300.9766"/><text fill="#000000" font-family="sans-serif" font-size="13" lengthAdjust="spacing" textLength="113" x="702.5" y="296.1201">chercheSolution(...)</text><polygon fill="#181818" points="706.5,327.3281,696.5,331.3281,706.5,335.3281,702.5,331.3281" style="stroke:#181818;stroke-width:1.0;"/><line style="stroke:#181818;stroke-width:1.0;stroke-dasharray:2.0,2.0;" x1="700.5" x2="1119.5" y1="331.3281" y2="331.3281"/><text fill="#000000" font-family="sans-serif" font-size="13" lengthAdjust="spacing" textLength="33" x="712.5" y="326.4717">errour</text><polygon fill="#181818" points="372.5,357.6797,362.5,361.6797,372.5,365.6797,368.5,361.6797" style="stroke:#181818;stroke-width:1.0;"/><line style="stroke:#181818;stroke-width:1.0;stroke-dasharray:2.0,2.0;" x1="366.5" x2="689.5" y1="361.6797" y2="361.6797"/><text fill="#000000" font-family="sans-serif" font-size="13" lengthAdjust="spacing" textLength="33" x="378.5" y="356.8232">errour</text><polygon fill="#181818" points="33.5,388.0313,23.5,392.0313,33.5,396.0313,29.5,392.0313" style="stroke:#181818;stroke-width:1.0;"/><line style="stroke:#181818;stroke-width:1.0;stroke-dasharray:2.0,2.0;" x1="27.5" x2="350.5" y1="392.0313" y2="392.0313"/><text fill="#000000" font-family="sans-serif" font-size="13" lengthAdjust="spacing" textLength="227" x="39.5" y="387.1748">"tourn&#233;e imposible, choisir outre ourier"</text><polygon fill="#181818" points="339.5,418.3828,349.5,422.3828,339.5,426.3828,343.5,422.3828" style="stroke:#181818;stroke-width:1.0;"/><line style="stroke:#181818;stroke-width:1.0;" x1="22.5" x2="345.5" y1="422.3828" y2="422.3828"/><text fill="#000000" font-family="sans-serif" font-size="13" lengthAdjust="spacing" textLength="305" x="29.5" y="417.5264">updateRequestOrder(requestBeforeId, requestAfterId)</text><polygon fill="#181818" points="673.5,448.7344,683.5,452.7344,673.5,456.7344,677.5,452.7344" style="stroke:#181818;stroke-width:1.0;"/><line style="stroke:#181818;stroke-width:1.0;" x1="361.5" x2="679.5" y1="452.7344" y2="452.7344"/><text fill="#000000" font-family="sans-serif" font-size="13" lengthAdjust="spacing" textLength="305" x="368.5" y="447.8779">updateRequestOrder(requestBeforeId, requestAfterId)</text><line style="stroke:#181818;stroke-width:1.0;" x1="695.5" x2="737.5" y1="483.0859" y2="483.0859"/><line style="stroke:#181818;stroke-width:1.0;" x1="737.5" x2="737.5" y1="483.0859" y2="496.0859"/><line style="stroke:#181818;stroke-width:1.0;" x1="696.5" x2="737.5" y1="496.0859" y2="496.0859"/><polygon fill="#181818" points="706.5,492.0859,696.5,496.0859,706.5,500.0859,702.5,496.0859" style="stroke:#181818;stroke-width:1.0;"/><text fill="#000000" font-family="sans-serif" font-size="13" lengthAdjust="spacing" textLength="406" x="702.5" y="478.2295">apply precedence constraint(requestBeforeId, requestAfterId, courierId)</text><line style="stroke:#181818;stroke-width:1.0;" x1="695.5" x2="737.5" y1="526.4375" y2="526.4375"/><line style="stroke:#181818;stroke-width:1.0;" x1="737.5" x2="737.5" y1="526.4375" y2="539.4375"/><line style="stroke:#181818;stroke-width:1.0;" x1="696.5" x2="737.5" y1="539.4375" y2="539.4375"/><polygon fill="#181818" points="706.5,535.4375,696.5,539.4375,706.5,543.4375,702.5,539.4375" style="stroke:#181818;stroke-width:1.0;"/><text fill="#000000" font-family="sans-serif" font-size="13" lengthAdjust="spacing" textLength="192" x="702.5" y="521.5811">computeTourForCourier(courierId)</text><polygon fill="#181818" points="1103.5,565.7891,1113.5,569.7891,1103.5,573.7891,1107.5,569.7891" style="stroke:#181818;stroke-width:1.0;"/><line style="stroke:#181818;stroke-width:1.0;" x1="695.5" x2="1109.5" y1="569.7891" y2="569.7891"/><text fill="#000000" font-family="sans-serif" font-size="13" lengthAdjust="spacing" textLength="113" x="702.5" y="564.9326">chercheSolution(...)</text><polygon fill="#181818" points="706.5,596.1406,696.5,600.1406,706.5,604.1406,702.5,600.1406" style="stroke:#181818;stroke-width:1.0;"/><line style="stroke:#181818;stroke-width:1.0;stroke-dasharray:2.0,2.0;" x1="700.5" x2="1119.5" y1="600.1406" y2="600.1406"/><text fill="#000000" font-family="sans-serif" font-size="13" lengthAdjust="spacing" textLength="50" x="712.5" y="595.2842">bestTour</text><polygon fill="#181818" points="372.5,626.4922,362.5,630.4922,372.5,634.4922,368.5,630.4922" style="stroke:#181818;stroke-width:1.0;"/><line style="stroke:#181818;stroke-width:1.0;stroke-dasharray:2.0,2.0;" x1="366.5" x2="689.5" y1="630.4922" y2="630.4922"/><text fill="#000000" font-family="sans-serif" font-size="13" lengthAdjust="spacing" textLength="71" x="378.5" y="625.6357">updatedTour</text><polygon fill="#181818" points="33.5,656.8438,23.5,660.8438,33.5,664.8438,29.5,660.8438" style="stroke:#181818;stroke-width:1.0;"/><line style="stroke:#181818;stroke-width:1.0;stroke-dasharray:2.0,2.0;" x1="27.5" x2="355.5" y1="660.8438" y2="660.8438"/><text fill="#000000" font-family="sans-serif" font-size="13" lengthAdjust="spacing" textLength="212" x="39.5" y="655.9873">"Ordre modifi&#233; et tourn&#233;e recalcul&#233;e"</text><!--SRC=[xPH1Ri8m44NtESKego01QhOiAhMHAh6eG0qSmDY3i6GyxiH6wgxNw14u1pVfIJf909Ms4ejssKKa9_FpylE_asYZGrXMvGsCu96CNLjaSE-lRyI64Go2K-3iZfLjo4DnsEiD9HnacTAH69ODSXOKHwjjK3v2lg345Vd8v1no3gg1HVLTKYFlhCP-Nd-Pr_FoE9YNMTO-0qQtWe49f61Kn2TyJjZ46HlaWlkJUrmJuzGCuNZXRXsHfsRGMhKxkQiraWcbPTM_PjN2giyi5O9xWS2eqQ3N29fy4oKs7wz1Xw9DR7l-9wIcRKWHsxGUI3BjDCKFsddPgZV8SjJaKhJaY_5uVE5MakoKenCUcGML6RmKTTHJsZzf-WX5qVKoWJoAn1_s27ORgB4hX_966xADPQ0KPHlrblC_gFA_ltD_At6mkDfWdv5PNAznrdtns-udSDW3HZWNAwaefvEJTNv1gJu0]--></g></svg>