<?xml version="1.0" encoding="us-ascii" standalone="no"?><svg xmlns="http://www.w3.org/2000/svg" xmlns:xlink="http://www.w3.org/1999/xlink" contentStyleType="text/css" height="284px" preserveAspectRatio="none" style="width:446px;height:284px;background:#FFFFFF;" version="1.1" viewBox="0 0 446 284" width="446px" zoomAndPan="magnify"><defs/><g><text fill="#000000" font-family="sans-serif" font-size="14" font-weight="bold" lengthAdjust="spacing" textLength="203" x="120.5" y="29.5332">UC7 - Choisir lieu de collecte</text><rect fill="#FFFFFF" height="30.3516" style="stroke:#181818;stroke-width:1.0;" width="10" x="370.5" y="153.5703"/><line style="stroke:#181818;stroke-width:0.5;stroke-dasharray:5.0,5.0;" x1="22" x2="22" y1="121.2188" y2="201.9219"/><line style="stroke:#181818;stroke-width:0.5;stroke-dasharray:5.0,5.0;" x1="375" x2="375" y1="121.2188" y2="201.9219"/><text fill="#000000" font-family="sans-serif" font-size="14" lengthAdjust="spacing" textLength="29" x="5" y="118.1426">User</text><ellipse cx="22.5" cy="52.1094" fill="#E2E2F0" rx="8" ry="8" style="stroke:#181818;stroke-width:0.5;"/><path d="M22.5,60.1094 L22.5,87.1094 M9.5,68.1094 L35.5,68.1094 M22.5,87.1094 L9.5,102.1094 M22.5,87.1094 L35.5,102.1094 " fill="none" style="stroke:#181818;stroke-width:0.5;"/><text fill="#000000" font-family="sans-serif" font-size="14" lengthAdjust="spacing" textLength="29" x="5" y="215.4551">User</text><ellipse cx="22.5" cy="227.0313" fill="#E2E2F0" rx="8" ry="8" style="stroke:#181818;stroke-width:0.5;"/><path d="M22.5,235.0313 L22.5,262.0313 M9.5,243.0313 L35.5,243.0313 M22.5,262.0313 L9.5,277.0313 M22.5,262.0313 L35.5,277.0313 " fill="none" style="stroke:#181818;stroke-width:0.5;"/><rect fill="#E2E2F0" height="31.6094" rx="2.5" ry="2.5" style="stroke:#181818;stroke-width:0.5;" width="129" x="311" y="88.6094"/><text fill="#000000" font-family="sans-serif" font-size="14" lengthAdjust="spacing" textLength="115" x="318" y="110.1426">RequestController</text><rect fill="#E2E2F0" height="31.6094" rx="2.5" ry="2.5" style="stroke:#181818;stroke-width:0.5;" width="129" x="311" y="200.9219"/><text fill="#000000" font-family="sans-serif" font-size="14" lengthAdjust="spacing" textLength="115" x="318" y="222.4551">RequestController</text><rect fill="#FFFFFF" height="30.3516" style="stroke:#181818;stroke-width:1.0;" width="10" x="370.5" y="153.5703"/><polygon fill="#181818" points="358.5,149.5703,368.5,153.5703,358.5,157.5703,362.5,153.5703" style="stroke:#181818;stroke-width:1.0;"/><line style="stroke:#181818;stroke-width:1.0;" x1="22.5" x2="364.5" y1="153.5703" y2="153.5703"/><text fill="#000000" font-family="sans-serif" font-size="13" lengthAdjust="spacing" textLength="329" x="29.5" y="148.7139">choosePickup(intersectionId) (soit dans la carte, un liste)</text><polygon fill="#181818" points="33.5,179.9219,23.5,183.9219,33.5,187.9219,29.5,183.9219" style="stroke:#181818;stroke-width:1.0;"/><line style="stroke:#181818;stroke-width:1.0;stroke-dasharray:2.0,2.0;" x1="27.5" x2="374.5" y1="183.9219" y2="183.9219"/><text fill="#000000" font-family="sans-serif" font-size="13" lengthAdjust="spacing" textLength="163" x="39.5" y="179.0654">pickupSelected (UI updated)</text><!--SRC=[JSwn2iCm30JGtLznP4gWcGiPkdZALbBo0SOMHDJOhYNt- -jawgRXzEwKDH9sUySCUsGMheXC3O7WSupabOnnNdF5BbHDSLNPSt59CMpqQIHgSz9wXki09zYiCMSMywFVME2Fd8MUxD-jZ9oKgdINSrh3X54oAu9BWkZWEqytjDHNYD9qLlFNALrgr-QENlY2Se4lkaO6ZFkALaBFXia4-dly0G00]--></g></svg>