<?xml version="1.0" encoding="us-ascii" standalone="no"?><svg xmlns="http://www.w3.org/2000/svg" xmlns:xlink="http://www.w3.org/1999/xlink" contentStyleType="text/css" height="492px" preserveAspectRatio="none" style="width:1146px;height:492px;background:#FFFFFF;" version="1.1" viewBox="0 0 1146 492" width="1146px" zoomAndPan="magnify"><defs/><g><text fill="#000000" font-family="sans-serif" font-size="14" font-weight="bold" lengthAdjust="spacing" textLength="262" x="441" y="29.5332">UC10 - Modifier l&#8217;ordre de la livraison</text><rect fill="#FFFFFF" height="238.4609" style="stroke:#181818;stroke-width:1.0;" width="10" x="346.5" y="153.5703"/><rect fill="#FFFFFF" height="177.7578" style="stroke:#181818;stroke-width:1.0;" width="10" x="680.5" y="183.9219"/><rect fill="#FFFFFF" height="30.3516" style="stroke:#181818;stroke-width:1.0;" width="10" x="1110.5" y="300.9766"/><line style="stroke:#181818;stroke-width:0.5;stroke-dasharray:5.0,5.0;" x1="22" x2="22" y1="121.2188" y2="410.0313"/><line style="stroke:#181818;stroke-width:0.5;stroke-dasharray:5.0,5.0;" x1="351.5" x2="351.5" y1="121.2188" y2="410.0313"/><line style="stroke:#181818;stroke-width:0.5;stroke-dasharray:5.0,5.0;" x1="685" x2="685" y1="121.2188" y2="410.0313"/><line style="stroke:#181818;stroke-width:0.5;stroke-dasharray:5.0,5.0;" x1="1115" x2="1115" y1="121.2188" y2="410.0313"/><text fill="#000000" font-family="sans-serif" font-size="14" lengthAdjust="spacing" textLength="29" x="5" y="118.1426">User</text><ellipse cx="22.5" cy="52.1094" fill="#E2E2F0" rx="8" ry="8" style="stroke:#181818;stroke-width:0.5;"/><path d="M22.5,60.1094 L22.5,87.1094 M9.5,68.1094 L35.5,68.1094 M22.5,87.1094 L9.5,102.1094 M22.5,87.1094 L35.5,102.1094 " fill="none" style="stroke:#181818;stroke-width:0.5;"/><text fill="#000000" font-family="sans-serif" font-size="14" lengthAdjust="spacing" textLength="29" x="5" y="423.5645">User</text><ellipse cx="22.5" cy="435.1406" fill="#E2E2F0" rx="8" ry="8" style="stroke:#181818;stroke-width:0.5;"/><path d="M22.5,443.1406 L22.5,470.1406 M9.5,451.1406 L35.5,451.1406 M22.5,470.1406 L9.5,485.1406 M22.5,470.1406 L35.5,485.1406 " fill="none" style="stroke:#181818;stroke-width:0.5;"/><rect fill="#E2E2F0" height="31.6094" rx="2.5" ry="2.5" style="stroke:#181818;stroke-width:0.5;" width="106" x="298.5" y="88.6094"/><text fill="#000000" font-family="sans-serif" font-size="14" lengthAdjust="spacing" textLength="92" x="305.5" y="110.1426">TourController</text><rect fill="#E2E2F0" height="31.6094" rx="2.5" ry="2.5" style="stroke:#181818;stroke-width:0.5;" width="106" x="298.5" y="409.0313"/><text fill="#000000" font-family="sans-serif" font-size="14" lengthAdjust="spacing" textLength="92" x="305.5" y="430.5645">TourController</text><rect fill="#E2E2F0" height="31.6094" rx="2.5" ry="2.5" style="stroke:#181818;stroke-width:0.5;" width="91" x="640" y="88.6094"/><text fill="#000000" font-family="sans-serif" font-size="14" lengthAdjust="spacing" textLength="77" x="647" y="110.1426">TourService</text><rect fill="#E2E2F0" height="31.6094" rx="2.5" ry="2.5" style="stroke:#181818;stroke-width:0.5;" width="91" x="640" y="409.0313"/><text fill="#000000" font-family="sans-serif" font-size="14" lengthAdjust="spacing" textLength="77" x="647" y="430.5645">TourService</text><rect fill="#E2E2F0" height="31.6094" rx="2.5" ry="2.5" style="stroke:#181818;stroke-width:0.5;" width="49" x="1091" y="88.6094"/><text fill="#000000" font-family="sans-serif" font-size="14" lengthAdjust="spacing" textLength="35" x="1098" y="110.1426">TSP1</text><rect fill="#E2E2F0" height="31.6094" rx="2.5" ry="2.5" style="stroke:#181818;stroke-width:0.5;" width="49" x="1091" y="409.0313"/><text fill="#000000" font-family="sans-serif" font-size="14" lengthAdjust="spacing" textLength="35" x="1098" y="430.5645">TSP1</text><rect fill="#FFFFFF" height="238.4609" style="stroke:#181818;stroke-width:1.0;" width="10" x="346.5" y="153.5703"/><rect fill="#FFFFFF" height="177.7578" style="stroke:#181818;stroke-width:1.0;" width="10" x="680.5" y="183.9219"/><rect fill="#FFFFFF" height="30.3516" style="stroke:#181818;stroke-width:1.0;" width="10" x="1110.5" y="300.9766"/><polygon fill="#181818" points="334.5,149.5703,344.5,153.5703,334.5,157.5703,338.5,153.5703" style="stroke:#181818;stroke-width:1.0;"/><line style="stroke:#181818;stroke-width:1.0;" x1="22.5" x2="340.5" y1="153.5703" y2="153.5703"/><text fill="#000000" font-family="sans-serif" font-size="13" lengthAdjust="spacing" textLength="305" x="29.5" y="148.7139">updateRequestOrder(requestBeforeId, requestAfterId)</text><polygon fill="#181818" points="668.5,179.9219,678.5,183.9219,668.5,187.9219,672.5,183.9219" style="stroke:#181818;stroke-width:1.0;"/><line style="stroke:#181818;stroke-width:1.0;" x1="356.5" x2="674.5" y1="183.9219" y2="183.9219"/><text fill="#000000" font-family="sans-serif" font-size="13" lengthAdjust="spacing" textLength="305" x="363.5" y="179.0654">updateRequestOrder(requestBeforeId, requestAfterId)</text><line style="stroke:#181818;stroke-width:1.0;" x1="690.5" x2="732.5" y1="214.2734" y2="214.2734"/><line style="stroke:#181818;stroke-width:1.0;" x1="732.5" x2="732.5" y1="214.2734" y2="227.2734"/><line style="stroke:#181818;stroke-width:1.0;" x1="691.5" x2="732.5" y1="227.2734" y2="227.2734"/><polygon fill="#181818" points="701.5,223.2734,691.5,227.2734,701.5,231.2734,697.5,227.2734" style="stroke:#181818;stroke-width:1.0;"/><text fill="#000000" font-family="sans-serif" font-size="13" lengthAdjust="spacing" textLength="406" x="697.5" y="209.417">apply precedence constraint(requestBeforeId, requestAfterId, courierId)</text><line style="stroke:#181818;stroke-width:1.0;" x1="690.5" x2="732.5" y1="257.625" y2="257.625"/><line style="stroke:#181818;stroke-width:1.0;" x1="732.5" x2="732.5" y1="257.625" y2="270.625"/><line style="stroke:#181818;stroke-width:1.0;" x1="691.5" x2="732.5" y1="270.625" y2="270.625"/><polygon fill="#181818" points="701.5,266.625,691.5,270.625,701.5,274.625,697.5,270.625" style="stroke:#181818;stroke-width:1.0;"/><text fill="#000000" font-family="sans-serif" font-size="13" lengthAdjust="spacing" textLength="192" x="697.5" y="252.7686">computeTourForCourier(courierId)</text><polygon fill="#181818" points="1098.5,296.9766,1108.5,300.9766,1098.5,304.9766,1102.5,300.9766" style="stroke:#181818;stroke-width:1.0;"/><line style="stroke:#181818;stroke-width:1.0;" x1="690.5" x2="1104.5" y1="300.9766" y2="300.9766"/><text fill="#000000" font-family="sans-serif" font-size="13" lengthAdjust="spacing" textLength="113" x="697.5" y="296.1201">chercheSolution(...)</text><polygon fill="#181818" points="701.5,327.3281,691.5,331.3281,701.5,335.3281,697.5,331.3281" style="stroke:#181818;stroke-width:1.0;"/><line style="stroke:#181818;stroke-width:1.0;stroke-dasharray:2.0,2.0;" x1="695.5" x2="1114.5" y1="331.3281" y2="331.3281"/><text fill="#000000" font-family="sans-serif" font-size="13" lengthAdjust="spacing" textLength="50" x="707.5" y="326.4717">bestTour</text><polygon fill="#181818" points="367.5,357.6797,357.5,361.6797,367.5,365.6797,363.5,361.6797" style="stroke:#181818;stroke-width:1.0;"/><line style="stroke:#181818;stroke-width:1.0;stroke-dasharray:2.0,2.0;" x1="361.5" x2="684.5" y1="361.6797" y2="361.6797"/><text fill="#000000" font-family="sans-serif" font-size="13" lengthAdjust="spacing" textLength="71" x="373.5" y="356.8232">updatedTour</text><polygon fill="#181818" points="33.5,388.0313,23.5,392.0313,33.5,396.0313,29.5,392.0313" style="stroke:#181818;stroke-width:1.0;"/><line style="stroke:#181818;stroke-width:1.0;stroke-dasharray:2.0,2.0;" x1="27.5" x2="350.5" y1="392.0313" y2="392.0313"/><text fill="#000000" font-family="sans-serif" font-size="13" lengthAdjust="spacing" textLength="212" x="39.5" y="387.1748">"Ordre modifi&#233; et tourn&#233;e recalcul&#233;e"</text><!--SRC=[fP91JiCm44NtFiKegoAr5TbsWGIHaBf0hN1x06DFXINNDfD99NPSWoFq7Bq99s6S54G0YGKBIt7c-NdoC-mv86oR-X9cS9USttaa26ylhuaS8JY4O23u0ndVfgYKiPm8jYsIoeROMvzDPAWsgQCcHQOK0b85feLDynFHI0TlSQZhRtMzhi-5TQrKkGDcLwA11NJP6SPxVEgmvHKvf0aDcnlS9SAbcyBvnVMEaPRkehJg3tAgDAB4KbpwtoujBltfCZc7PyY45Xr6Ys1JR5d2YloNT2fiHtxmVr7QjCyTOqdhDaccFJFvXLtNXNv4agLJwDYdE9dFvwDk9ScUd7te7wI3ubOEnrZl7UVjVe93aeBrlsS1rQgVatq_EgSZ80FBeNWwedolDS5sGPwhaQLv1m00]--></g></svg>